<?xml version="1.0" encoding="UTF-8"?>
<mxfile host="app.diagrams.net" agent="5.0 (Windows)" version="24.7.7">
  <diagram name="Data Flow Integration" id="data-flow">
    <mxGraphModel dx="1422" dy="786" grid="1" gridSize="10" guides="1" tooltips="1" connect="1" arrows="1" fold="1" page="1" pageScale="1" pageWidth="1169" pageHeight="827" math="0" shadow="0">
      <root>
        <mxCell id="0" />
        <mxCell id="1" parent="0" />

        <!-- Title -->
        <mxCell id="title" value="Integrated Data Flow: Ingestion + IMO Creator&#xa;End-to-End Processing Pipeline" style="text;html=1;strokeColor=none;fillColor=none;align=center;verticalAlign=middle;whiteSpace=wrap;rounded=0;fontSize=18;fontStyle=1" vertex="1" parent="1">
          <mxGeometry x="284" y="30" width="600" height="50" as="geometry" />
        </mxCell>

        <!-- Data Sources -->
        <mxCell id="csv-files" value="CSV Files&#xa;Company/People Data" style="rounded=1;whiteSpace=wrap;html=1;fillColor=#fff2cc;strokeColor=#d6b656;fontSize=12" vertex="1" parent="1">
          <mxGeometry x="80" y="120" width="120" height="60" as="geometry" />
        </mxCell>

        <mxCell id="excel-files" value="Excel Files&#xa;(.xlsx, .xls)" style="rounded=1;whiteSpace=wrap;html=1;fillColor=#fff2cc;strokeColor=#d6b656;fontSize=12" vertex="1" parent="1">
          <mxGeometry x="80" y="200" width="120" height="60" as="geometry" />
        </mxCell>

        <!-- Upload Component -->
        <mxCell id="file-drop" value="FileDrop Component&#xa;React Dropzone&#xa;File Validation" style="rounded=1;whiteSpace=wrap;html=1;fillColor=#dae8fc;strokeColor=#6c8ebf;fontSize=12;fontStyle=1" vertex="1" parent="1">
          <mxGeometry x="280" y="160" width="140" height="80" as="geometry" />
        </mxCell>

        <!-- Data Processing -->
        <mxCell id="parser" value="Data Parser&#xa;Papa Parse (CSV)&#xa;XLSX Library" style="rounded=1;whiteSpace=wrap;html=1;fillColor=#d5e8d4;strokeColor=#82b366;fontSize=12" vertex="1" parent="1">
          <mxGeometry x="480" y="120" width="120" height="60" as="geometry" />
        </mxCell>

        <mxCell id="validator" value="Data Validator&#xa;Schema Validation&#xa;Type Checking" style="rounded=1;whiteSpace=wrap;html=1;fillColor=#d5e8d4;strokeColor=#82b366;fontSize=12" vertex="1" parent="1">
          <mxGeometry x="480" y="200" width="120" height="60" as="geometry" />
        </mxCell>

        <!-- Preview -->
        <mxCell id="preview" value="Preview Table&#xa;RecordPreviewTable&#xa;Data Verification" style="rounded=1;whiteSpace=wrap;html=1;fillColor=#f8cecc;strokeColor=#b85450;fontSize=12" vertex="1" parent="1">
          <mxGeometry x="680" y="160" width="140" height="80" as="geometry" />
        </mxCell>

        <!-- Data Storage -->
        <mxCell id="ingestion-form" value="Ingestion Form&#xa;Table Type Selection&#xa;API Configuration" style="rounded=1;whiteSpace=wrap;html=1;fillColor=#e1d5e7;strokeColor=#9673a6;fontSize=12;fontStyle=1" vertex="1" parent="1">
          <mxGeometry x="280" y="320" width="140" height="80" as="geometry" />
        </mxCell>

        <mxCell id="neon-api" value="Render API&#xa;render-marketing-db&#xa;.onrender.com" style="rounded=1;whiteSpace=wrap;html=1;fillColor=#ffcd28;strokeColor=#d79b00;fontSize=12;fontStyle=1" vertex="1" parent="1">
          <mxGeometry x="480" y="320" width="120" height="80" as="geometry" />
        </mxCell>

        <mxCell id="neon-db" value="Neon Database&#xa;company.marketing_company&#xa;people.marketing_people" style="cylinder;whiteSpace=wrap;html=1;boundedLbl=1;backgroundOutline=1;fillColor=#ffcd28;strokeColor=#d79b00;fontSize=11;fontStyle=1" vertex="1" parent="1">
          <mxGeometry x="680" y="310" width="140" height="100" as="geometry" />
        </mxCell>

        <!-- IMO Creator Integration -->
        <mxCell id="imo-ssot" value="SSOT Manifest&#xa;IMO Creator&#xa;Blueprint Management" style="rounded=1;whiteSpace=wrap;html=1;fillColor=#f0f0f0;strokeColor=#666666;fontSize=12;fontStyle=1" vertex="1" parent="1">
          <mxGeometry x="280" y="480" width="140" height="80" as="geometry" />
        </mxCell>

        <mxCell id="heir-check" value="HEIR Validation&#xa;ID Generation&#xa;Compliance Check" style="rounded=1;whiteSpace=wrap;html=1;fillColor=#f0f0f0;strokeColor=#666666;fontSize=12" vertex="1" parent="1">
          <mxGeometry x="480" y="480" width="120" height="80" as="geometry" />
        </mxCell>

        <mxCell id="mcp-orchestrator" value="MCP Orchestrator&#xa;Tool Routing&#xa;Composio Integration" style="rounded=1;whiteSpace=wrap;html=1;fillColor=#f0f0f0;strokeColor=#666666;fontSize=12" vertex="1" parent="1">
          <mxGeometry x="680" y="480" width="140" height="80" as="geometry" />
        </mxCell>

        <!-- API Testing -->
        <mxCell id="api-tester" value="API Testing Suite&#xa;Connection Status&#xa;Enhanced Debugging" style="rounded=1;whiteSpace=wrap;html=1;fillColor=#ffe6cc;strokeColor=#d79b00;fontSize=12" vertex="1" parent="1">
          <mxGeometry x="880" y="160" width="140" height="80" as="geometry" />
        </mxCell>

        <mxCell id="cors-status" value="CORS Status&#xa;Cross-Origin&#xa;Monitoring" style="rounded=1;whiteSpace=wrap;html=1;fillColor=#ffe6cc;strokeColor=#d79b00;fontSize=12" vertex="1" parent="1">
          <mxGeometry x="880" y="260" width="140" height="60" as="geometry" />
        </mxCell>

        <mxCell id="mcp-tester" value="MCP Tester&#xa;Server Health&#xa;Tool Validation" style="rounded=1;whiteSpace=wrap;html=1;fillColor=#ffe6cc;strokeColor=#d79b00;fontSize=12" vertex="1" parent="1">
          <mxGeometry x="880" y="340" width="140" height="60" as="geometry" />
        </mxCell>

        <!-- Flow Arrows -->
        <!-- File Sources to FileDrop -->
        <mxCell id="csv-to-drop" value="" style="endArrow=classic;html=1;rounded=0;exitX=1;exitY=0.5;exitDx=0;exitDy=0;entryX=0;entryY=0.25;entryDx=0;entryDy=0;" edge="1" parent="1" source="csv-files" target="file-drop">
          <mxGeometry width="50" height="50" relative="1" as="geometry">
            <mxPoint x="430" y="300" as="sourcePoint" />
            <mxPoint x="480" y="250" as="targetPoint" />
          </mxGeometry>
        </mxCell>

        <mxCell id="excel-to-drop" value="" style="endArrow=classic;html=1;rounded=0;exitX=1;exitY=0.5;exitDx=0;exitDy=0;entryX=0;entryY=0.75;entryDx=0;entryDy=0;" edge="1" parent="1" source="excel-files" target="file-drop">
          <mxGeometry width="50" height="50" relative="1" as="geometry">
            <mxPoint x="210" y="160" as="sourcePoint" />
            <mxPoint x="290" y="180" as="targetPoint" />
          </mxGeometry>
        </mxCell>

        <!-- FileDrop to Processing -->
        <mxCell id="drop-to-parser" value="" style="endArrow=classic;html=1;rounded=0;exitX=1;exitY=0.25;exitDx=0;exitDy=0;entryX=0;entryY=0.5;entryDx=0;entryDy=0;" edge="1" parent="1" source="file-drop" target="parser">
          <mxGeometry width="50" height="50" relative="1" as="geometry">
            <mxPoint x="210" y="240" as="sourcePoint" />
            <mxPoint x="290" y="220" as="targetPoint" />
          </mxGeometry>
        </mxCell>

        <mxCell id="drop-to-validator" value="" style="endArrow=classic;html=1;rounded=0;exitX=1;exitY=0.75;exitDx=0;exitDy=0;entryX=0;entryY=0.5;entryDx=0;entryDy=0;" edge="1" parent="1" source="file-drop" target="validator">
          <mxGeometry width="50" height="50" relative="1" as="geometry">
            <mxPoint x="430" y="190" as="sourcePoint" />
            <mxPoint x="490" y="160" as="targetPoint" />
          </mxGeometry>
        </mxCell>

        <!-- Processing to Preview -->
        <mxCell id="parser-to-preview" value="" style="endArrow=classic;html=1;rounded=0;exitX=1;exitY=0.5;exitDx=0;exitDy=0;entryX=0;entryY=0.25;entryDx=0;entryDy=0;" edge="1" parent="1" source="parser" target="preview">
          <mxGeometry width="50" height="50" relative="1" as="geometry">
            <mxPoint x="430" y="200" as="sourcePoint" />
            <mxPoint x="490" y="240" as="targetPoint" />
          </mxGeometry>
        </mxCell>

        <mxCell id="validator-to-preview" value="" style="endArrow=classic;html=1;rounded=0;exitX=1;exitY=0.5;exitDx=0;exitDy=0;entryX=0;entryY=0.75;entryDx=0;entryDy=0;" edge="1" parent="1" source="validator" target="preview">
          <mxGeometry width="50" height="50" relative="1" as="geometry">
            <mxPoint x="610" y="160" as="sourcePoint" />
            <mxPoint x="690" y="180" as="targetPoint" />
          </mxGeometry>
        </mxCell>

        <!-- Preview to Storage Path -->
        <mxCell id="preview-to-form" value="" style="endArrow=classic;html=1;rounded=0;exitX=0;exitY=1;exitDx=0;exitDy=0;entryX=1;entryY=0;entryDx=0;entryDy=0;" edge="1" parent="1" source="preview" target="ingestion-form">
          <mxGeometry width="50" height="50" relative="1" as="geometry">
            <mxPoint x="610" y="240" as="sourcePoint" />
            <mxPoint x="690" y="220" as="targetPoint" />
          </mxGeometry>
        </mxCell>

        <!-- Ingestion Form to API -->
        <mxCell id="form-to-api" value="" style="endArrow=classic;html=1;rounded=0;exitX=1;exitY=0.5;exitDx=0;exitDy=0;entryX=0;entryY=0.5;entryDx=0;entryDy=0;" edge="1" parent="1" source="ingestion-form" target="neon-api">
          <mxGeometry width="50" height="50" relative="1" as="geometry">
            <mxPoint x="690" y="250" as="sourcePoint" />
            <mxPoint x="430" y="330" as="targetPoint" />
          </mxGeometry>
        </mxCell>

        <!-- API to Database -->
        <mxCell id="api-to-db" value="" style="endArrow=classic;html=1;rounded=0;exitX=1;exitY=0.5;exitDx=0;exitDy=0;entryX=0;entryY=0.5;entryDx=0;entryDy=0;" edge="1" parent="1" source="neon-api" target="neon-db">
          <mxGeometry width="50" height="50" relative="1" as="geometry">
            <mxPoint x="430" y="370" as="sourcePoint" />
            <mxPoint x="490" y="370" as="targetPoint" />
          </mxGeometry>
        </mxCell>

        <!-- IMO Creator Flow -->
        <mxCell id="form-to-ssot" value="" style="endArrow=classic;html=1;rounded=0;exitX=0.5;exitY=1;exitDx=0;exitDy=0;entryX=0.5;entryY=0;entryDx=0;entryDy=0;" edge="1" parent="1" source="ingestion-form" target="imo-ssot">
          <mxGeometry width="50" height="50" relative="1" as="geometry">
            <mxPoint x="430" y="370" as="sourcePoint" />
            <mxPoint x="490" y="370" as="targetPoint" />
          </mxGeometry>
        </mxCell>

        <mxCell id="ssot-to-heir" value="" style="endArrow=classic;html=1;rounded=0;exitX=1;exitY=0.5;exitDx=0;exitDy=0;entryX=0;entryY=0.5;entryDx=0;entryDy=0;" edge="1" parent="1" source="imo-ssot" target="heir-check">
          <mxGeometry width="50" height="50" relative="1" as="geometry">
            <mxPoint x="360" y="410" as="sourcePoint" />
            <mxPoint x="360" y="490" as="targetPoint" />
          </mxGeometry>
        </mxCell>

        <mxCell id="heir-to-mcp" value="" style="endArrow=classic;html=1;rounded=0;exitX=1;exitY=0.5;exitDx=0;exitDy=0;entryX=0;entryY=0.5;entryDx=0;entryDy=0;" edge="1" parent="1" source="heir-check" target="mcp-orchestrator">
          <mxGeometry width="50" height="50" relative="1" as="geometry">
            <mxPoint x="430" y="530" as="sourcePoint" />
            <mxPoint x="490" y="530" as="targetPoint" />
          </mxGeometry>
        </mxCell>

        <!-- Testing Components -->
        <mxCell id="preview-to-tester" value="" style="endArrow=classic;html=1;rounded=0;exitX=1;exitY=0.25;exitDx=0;exitDy=0;entryX=0;entryY=0.5;entryDx=0;entryDy=0;" edge="1" parent="1" source="preview" target="api-tester">
          <mxGeometry width="50" height="50" relative="1" as="geometry">
            <mxPoint x="690" y="250" as="sourcePoint" />
            <mxPoint x="430" y="330" as="targetPoint" />
          </mxGeometry>
        </mxCell>

        <mxCell id="api-to-cors" value="" style="endArrow=classic;html=1;rounded=0;exitX=1;exitY=0.25;exitDx=0;exitDy=0;entryX=0;entryY=0.5;entryDx=0;entryDy=0;" edge="1" parent="1" source="neon-api" target="cors-status">
          <mxGeometry width="50" height="50" relative="1" as="geometry">
            <mxPoint x="830" y="180" as="sourcePoint" />
            <mxPoint x="890" y="200" as="targetPoint" />
          </mxGeometry>
        </mxCell>

        <mxCell id="mcp-to-tester" value="" style="endArrow=classic;html=1;rounded=0;exitX=1;exitY=0.25;exitDx=0;exitDy=0;entryX=0;entryY=0.5;entryDx=0;entryDy=0;" edge="1" parent="1" source="mcp-orchestrator" target="mcp-tester">
          <mxGeometry width="50" height="50" relative="1" as="geometry">
            <mxPoint x="610" y="340" as="sourcePoint" />
            <mxPoint x="890" y="300" as="targetPoint" />
          </mxGeometry>
        </mxCell>

        <!-- Process Labels -->
        <mxCell id="process1" value="1. File Upload" style="text;html=1;strokeColor=none;fillColor=none;align=center;verticalAlign=middle;whiteSpace=wrap;rounded=0;fontSize=12;fontStyle=1;fontColor=#d79b00" vertex="1" parent="1">
          <mxGeometry x="220" y="120" width="80" height="30" as="geometry" />
        </mxCell>

        <mxCell id="process2" value="2. Data Processing" style="text;html=1;strokeColor=none;fillColor=none;align=center;verticalAlign=middle;whiteSpace=wrap;rounded=0;fontSize=12;fontStyle=1;fontColor=#82b366" vertex="1" parent="1">
          <mxGeometry x="600" y="120" width="100" height="30" as="geometry" />
        </mxCell>

        <mxCell id="process3" value="3. Data Storage" style="text;html=1;strokeColor=none;fillColor=none;align=center;verticalAlign=middle;whiteSpace=wrap;rounded=0;fontSize=12;fontStyle=1;fontColor=#d79b00" vertex="1" parent="1">
          <mxGeometry x="600" y="280" width="100" height="30" as="geometry" />
        </mxCell>

        <mxCell id="process4" value="4. IMO Integration" style="text;html=1;strokeColor=none;fillColor=none;align=center;verticalAlign=middle;whiteSpace=wrap;rounded=0;fontSize=12;fontStyle=1;fontColor=#666666" vertex="1" parent="1">
          <mxGeometry x="600" y="440" width="100" height="30" as="geometry" />
        </mxCell>

        <mxCell id="process5" value="5. Testing & Monitoring" style="text;html=1;strokeColor=none;fillColor=none;align=center;verticalAlign=middle;whiteSpace=wrap;rounded=0;fontSize=12;fontStyle=1;fontColor=#d79b00" vertex="1" parent="1">
          <mxGeometry x="1020" y="240" width="120" height="30" as="geometry" />
        </mxCell>

      </root>
    </mxGraphModel>
  </diagram>
</mxfile>